<mxfile host="app.diagrams.net" modified="2023-02-07T11:22:57.054Z" agent="5.0 (Windows NT 10.0; Win64; x64) AppleWebKit/537.36 (KHTML, like Gecko) Chrome/109.0.0.0 Safari/537.36 Edg/109.0.1518.78" version="20.8.5" etag="UMtP1US6HJvcjfjZQqGZ" type="github">
  <diagram id="qtcBp3dJnnCbnhJm_IX-" name="Page-1">
    <mxGraphModel dx="2227" dy="729" grid="1" gridSize="10" guides="1" tooltips="1" connect="1" arrows="1" fold="1" page="1" pageScale="1" pageWidth="827" pageHeight="1169" math="0" shadow="0">
      <root>
        <mxCell id="0" />
        <mxCell id="1" parent="0" />
        <mxCell id="3n8I6Zs3uas5UZcrwDvb-1" value="Model" style="rounded=0;whiteSpace=wrap;html=1;" vertex="1" parent="1">
          <mxGeometry x="-60" y="160" width="120" height="60" as="geometry" />
        </mxCell>
        <mxCell id="3n8I6Zs3uas5UZcrwDvb-2" value="" style="shape=cylinder3;whiteSpace=wrap;html=1;boundedLbl=1;backgroundOutline=1;size=15;" vertex="1" parent="1">
          <mxGeometry x="-240" y="150" width="60" height="80" as="geometry" />
        </mxCell>
        <mxCell id="3n8I6Zs3uas5UZcrwDvb-4" value="Database" style="text;html=1;align=center;verticalAlign=middle;resizable=0;points=[];autosize=1;strokeColor=none;fillColor=none;" vertex="1" parent="1">
          <mxGeometry x="-245" y="115" width="70" height="30" as="geometry" />
        </mxCell>
      </root>
    </mxGraphModel>
  </diagram>
</mxfile>
